<?xml version="1.0" encoding="utf-8" standalone="no"?>
<!DOCTYPE svg PUBLIC "-//W3C//DTD SVG 1.1//EN"
  "http://www.w3.org/Graphics/SVG/1.1/DTD/svg11.dtd">
<svg xmlns:xlink="http://www.w3.org/1999/xlink" width="432pt" height="288pt" viewBox="0 0 432 288" xmlns="http://www.w3.org/2000/svg" version="1.1">
 <metadata>
  <rdf:RDF xmlns:dc="http://purl.org/dc/elements/1.1/" xmlns:cc="http://creativecommons.org/ns#" xmlns:rdf="http://www.w3.org/1999/02/22-rdf-syntax-ns#">
   <cc:Work>
    <dc:type rdf:resource="http://purl.org/dc/dcmitype/StillImage"/>
    <dc:date>2022-10-20T18:36:45.186965</dc:date>
    <dc:format>image/svg+xml</dc:format>
    <dc:creator>
     <cc:Agent>
      <dc:title>Matplotlib v3.5.0, https://matplotlib.org/</dc:title>
     </cc:Agent>
    </dc:creator>
   </cc:Work>
  </rdf:RDF>
 </metadata>
 <defs>
  <style type="text/css">*{stroke-linejoin: round; stroke-linecap: butt}</style>
 </defs>
 <g id="figure_1">
  <g id="patch_1">
   <path d="M 0 288 
L 432 288 
L 432 0 
L 0 0 
L 0 288 
z
" style="fill: none"/>
  </g>
  <g id="axes_1">
   <g id="patch_2">
    <path d="M 54 252 
L 388.8 252 
L 388.8 34.56 
L 54 34.56 
z
" style="fill: #ffffff"/>
   </g>
   <g id="Quiver_1">
    <path d="M 69.515395 242.590895 
L 69.040864 242.888108 
L 70.109822 243.539956 
L 64.472873 245.088496 
L 68.326542 240.692771 
L 68.446438 241.939046 
L 68.920969 241.641833 
L 69.515395 242.590895 
" clip-path="url(#p557778d4a4)"/>
    <path d="M 69.270832 221.437519 
L 72.489602 221.623427 
L 71.68333 219.747633 
L 80.641097 223.008848 
L 71.36743 225.217064 
L 72.384302 223.44657 
L 69.165532 223.260663 
L 69.270832 221.437519 
" clip-path="url(#p557778d4a4)"/>
    <path d="M 69.351975 201.95178 
L 69.982013 202.085572 
L 69.61956 200.691702 
L 75.518568 203.919746 
L 68.816803 204.471934 
L 69.714428 203.34565 
L 69.084389 203.211857 
L 69.351975 201.95178 
" clip-path="url(#p557778d4a4)"/>
    <path d="M 69.289076 181.904211 
L 72.806431 182.178133 
L 72.037885 180.286569 
L 80.928547 183.726517 
L 71.612519 185.748577 
L 72.664642 183.998802 
L 69.147287 183.72488 
L 69.289076 181.904211 
" clip-path="url(#p557778d4a4)"/>
    <path d="M 69.342112 162.34909 
L 70.040295 162.473021 
L 69.589973 160.952725 
L 76.200007 164.286576 
L 68.846391 165.14182 
L 69.792434 163.869386 
L 69.094251 163.745455 
L 69.342112 162.34909 
" clip-path="url(#p557778d4a4)"/>
    <path d="M 69.301852 142.370751 
L 72.632117 142.677207 
L 71.890209 140.775038 
L 80.73169 144.339493 
L 71.388185 146.230534 
L 72.464776 144.495706 
L 69.134511 144.189249 
L 69.301852 142.370751 
" clip-path="url(#p557778d4a4)"/>
    <path d="M 69.335999 122.728125 
L 70.120601 122.845942 
L 69.571633 121.158922 
L 77.0642 124.690897 
L 68.864731 125.866533 
L 69.884967 124.415146 
L 69.100365 124.297329 
L 69.335999 122.728125 
" clip-path="url(#p557778d4a4)"/>
    <path d="M 69.318642 102.905589 
L 70.158507 103.006049 
L 69.519561 101.225859 
L 77.616835 104.750053 
L 68.916802 106.265051 
L 69.957587 104.68578 
L 69.117722 104.58532 
L 69.318642 102.905589 
" clip-path="url(#p557778d4a4)"/>
    <path d="M 69.35394 83.130743 
L 70.201379 83.266501 
L 69.625456 81.435864 
L 77.692574 85.335761 
L 68.810908 86.520499 
L 69.929863 84.961379 
L 69.082424 84.825621 
L 69.35394 83.130743 
" clip-path="url(#p557778d4a4)"/>
    <path d="M 69.375572 63.389586 
L 70.196895 63.546976 
L 69.690352 61.746939 
L 77.431416 65.784811 
L 68.746011 66.674879 
L 69.882115 65.189623 
L 69.060792 65.032232 
L 69.375572 63.389586 
" clip-path="url(#p557778d4a4)"/>
    <path d="M 69.568492 45.086163 
L 68.925965 45.436473 
L 70.269112 46.371216 
L 62.792917 47.946736 
L 68.167252 42.516057 
L 68.225345 44.15142 
L 68.867872 43.80111 
L 69.568492 45.086163 
" clip-path="url(#p557778d4a4)"/>
    <path d="M 98.765159 242.323069 
L 96.84005 234.039948 
L 95.267983 235.342744 
L 95.869089 225.828766 
L 100.604301 234.102512 
L 98.618823 233.626537 
L 100.543932 241.909658 
L 98.765159 242.323069 
" clip-path="url(#p557778d4a4)"/>
    <path d="M 99.318258 221.500182 
L 102.187808 220.363435 
L 100.666324 219.001906 
L 110.164272 218.185755 
L 102.68405 224.095357 
L 102.860383 222.061252 
L 99.990833 223.197999 
L 99.318258 221.500182 
" clip-path="url(#p557778d4a4)"/>
    <path d="M 99.578056 202.129049 
L 100.030826 202.05256 
L 99.425078 201.22351 
L 104.18224 201.816926 
L 99.884013 203.940127 
L 100.183804 202.958098 
L 99.731035 203.034588 
L 99.578056 202.129049 
" clip-path="url(#p557778d4a4)"/>
    <path d="M 99.718056 182.25902 
L 100.273582 182.32253 
L 99.845076 181.147968 
L 105.209803 183.449648 
L 99.464015 184.481123 
L 100.146561 183.433582 
L 99.591035 183.370071 
L 99.718056 182.25902 
" clip-path="url(#p557778d4a4)"/>
    <path d="M 99.611214 162.564335 
L 100.094152 162.521004 
L 99.524552 161.59846 
L 104.48392 162.61396 
L 99.784539 164.496085 
L 100.180814 163.486879 
L 99.697877 163.53021 
L 99.611214 162.564335 
" clip-path="url(#p557778d4a4)"/>
    <path d="M 99.683801 142.777382 
L 100.186419 142.806637 
L 99.742312 141.772146 
L 104.680726 143.572556 
L 99.566779 144.787854 
L 100.127908 143.811874 
L 99.62529 143.782618 
L 99.683801 142.777382 
" clip-path="url(#p557778d4a4)"/>
    <path d="M 100.404856 122.992373 
L 106.28627 131.472912 
L 107.266537 129.681892 
L 110.21915 138.746063 
L 102.764672 132.80402 
L 104.785648 132.513621 
L 98.904235 124.033082 
L 100.404856 122.992373 
" clip-path="url(#p557778d4a4)"/>
    <path d="M 99.676784 102.847255 
L 100.574984 102.869494 
L 99.721262 101.050856 
L 108.636539 103.967843 
L 99.587829 106.440053 
L 100.530506 104.665893 
L 99.632307 104.643654 
L 99.676784 102.847255 
" clip-path="url(#p557778d4a4)"/>
    <path d="M 99.675326 83.065327 
L 100.71739 83.089049 
L 99.846097 81.24256 
L 108.912299 84.18893 
L 99.721413 86.719686 
L 100.675828 84.914758 
L 99.633765 84.891036 
L 99.675326 83.065327 
" clip-path="url(#p557778d4a4)"/>
    <path d="M 100.482142 63.825138 
L 104.931386 73.370124 
L 106.200808 71.770986 
L 107.575728 81.204262 
L 101.235229 74.085611 
L 103.276193 74.141666 
L 98.826949 64.59668 
L 100.482142 63.825138 
" clip-path="url(#p557778d4a4)"/>
    <path d="M 100.515459 44.747878 
L 97.816413 52.385376 
L 99.842481 52.132946 
L 94.217324 59.829356 
L 94.677 50.307496 
L 96.094586 51.776893 
L 98.793632 44.139395 
L 100.515459 44.747878 
" clip-path="url(#p557778d4a4)"/>
    <path d="M 129.234582 242.433285 
L 127.44652 237.601905 
L 126.050787 239.092074 
L 125.450557 229.578041 
L 131.188749 237.190548 
L 129.159174 236.968063 
L 130.947236 241.799443 
L 129.234582 242.433285 
" clip-path="url(#p557778d4a4)"/>
    <path d="M 129.351061 222.884217 
L 126.873452 219.458751 
L 125.928881 221.26885 
L 122.79717 212.26499 
L 130.367971 218.058097 
L 128.353149 218.3885 
L 130.830757 221.813965 
L 129.351061 222.884217 
" clip-path="url(#p557778d4a4)"/>
    <path d="M 129.337343 202.066189 
L 129.267578 202.976611 
L 130.021144 203.49224 
L 130.844475 203.097447 
L 130.91424 202.187025 
L 130.160674 201.671396 
L 129.337343 202.066189 
L 129.267578 202.976611 
" clip-path="url(#p557778d4a4)"/>
    <path d="M 129.758288 183.41392 
L 129.158913 183.0813 
L 129.093047 184.61267 
L 124.09716 179.488338 
L 131.088771 181.016421 
L 129.824155 181.88255 
L 130.42353 182.215171 
L 129.758288 183.41392 
" clip-path="url(#p557778d4a4)"/>
    <path d="M 129.481037 162.367721 
L 129.197464 163.235662 
L 129.807336 163.915214 
L 130.700781 163.726825 
L 130.984354 162.858884 
L 130.374482 162.179332 
L 129.481037 162.367721 
L 129.197464 163.235662 
" clip-path="url(#p557778d4a4)"/>
    <path d="M 129.741597 143.835621 
L 129.185976 143.486309 
L 129.042974 144.946864 
L 124.534697 139.786882 
L 131.138844 141.613136 
L 129.8846 142.375067 
L 130.440221 142.724379 
L 129.741597 143.835621 
" clip-path="url(#p557778d4a4)"/>
    <path d="M 129.627347 122.72606 
L 129.177854 123.520851 
L 129.641417 124.307518 
L 130.554472 124.299394 
L 131.003964 123.504604 
L 130.540401 122.717937 
L 129.627347 122.72606 
L 129.177854 123.520851 
" clip-path="url(#p557778d4a4)"/>
    <path d="M 129.811168 102.876271 
L 129.198304 103.553125 
L 129.478044 104.422309 
L 130.37065 104.614638 
L 130.983515 103.937784 
L 130.703774 103.0686 
L 129.811168 102.876271 
L 129.198304 103.553125 
" clip-path="url(#p557778d4a4)"/>
    <path d="M 129.97974 83.071884 
L 129.250447 83.621308 
L 129.361616 84.527606 
L 130.202078 84.88448 
L 130.931371 84.335056 
L 130.820202 83.428757 
L 129.97974 83.071884 
L 129.250447 83.621308 
" clip-path="url(#p557778d4a4)"/>
    <path d="M 131.003826 64.228737 
L 130.863745 71.402076 
L 132.707406 70.524814 
L 129.79038 79.6005 
L 127.229905 70.417849 
L 129.037911 71.366421 
L 129.177992 64.193082 
L 131.003826 64.228737 
" clip-path="url(#p557778d4a4)"/>
    <path d="M 130.946155 44.763463 
L 128.519698 51.252036 
L 130.550017 51.036443 
L 124.786012 58.629424 
L 125.41854 49.117483 
L 126.809206 50.612383 
L 129.235663 44.12381 
L 130.946155 44.763463 
" clip-path="url(#p557778d4a4)"/>
    <path d="M 159.683011 242.464153 
L 158.199042 238.861808 
L 156.858308 240.401648 
L 155.913197 230.915665 
L 161.923877 238.314911 
L 159.887565 238.166228 
L 161.371534 241.768574 
L 159.683011 242.464153 
" clip-path="url(#p557778d4a4)"/>
    <path d="M 159.616553 222.283328 
L 159.865561 218.834921 
L 157.978359 219.614115 
L 161.368146 210.704206 
L 163.442677 220.008691 
L 161.687001 218.966446 
L 161.437992 222.414854 
L 159.616553 222.283328 
" clip-path="url(#p557778d4a4)"/>
    <path d="M 159.971609 201.857268 
L 159.621962 202.700762 
L 160.177626 203.425312 
L 161.082936 203.306368 
L 161.432583 202.462875 
L 160.87692 201.738324 
L 159.971609 201.857268 
L 159.621962 202.700762 
" clip-path="url(#p557778d4a4)"/>
    <path d="M 160.452381 181.904531 
L 159.701731 182.424396 
L 159.776623 183.334411 
L 160.602164 183.72456 
L 161.352814 183.204695 
L 161.277923 182.29468 
L 160.452381 181.904531 
L 159.701731 182.424396 
" clip-path="url(#p557778d4a4)"/>
    <path d="M 159.931465 162.355356 
L 159.630152 163.217299 
L 160.225959 163.909215 
L 161.12308 163.739189 
L 161.424394 162.877246 
L 160.828586 162.18533 
L 159.931465 162.355356 
L 159.630152 163.217299 
" clip-path="url(#p557778d4a4)"/>
    <path d="M 161.41001 143.046526 
L 160.766447 142.39879 
L 159.88371 142.632264 
L 159.644536 143.513474 
L 160.288098 144.16121 
L 161.170836 143.927736 
L 161.41001 143.046526 
L 160.766447 142.39879 
" clip-path="url(#p557778d4a4)"/>
    <path d="M 160.24806 122.643374 
L 159.634784 123.319856 
L 159.913997 124.189209 
L 160.806485 124.382081 
L 161.419761 123.705599 
L 161.140549 122.836245 
L 160.24806 122.643374 
L 159.634784 123.319856 
" clip-path="url(#p557778d4a4)"/>
    <path d="M 160.341914 102.851376 
L 159.660298 103.458941 
L 159.845657 104.35302 
L 160.712632 104.639533 
L 161.394247 104.031968 
L 161.208888 103.137889 
L 160.341914 102.851376 
L 159.660298 103.458941 
" clip-path="url(#p557778d4a4)"/>
    <path d="M 160.42487 83.070851 
L 159.6903 83.6132 
L 159.792703 84.52053 
L 160.629675 84.885512 
L 161.364245 84.343164 
L 161.261843 83.435833 
L 160.42487 83.070851 
L 159.6903 83.6132 
" clip-path="url(#p557778d4a4)"/>
    <path d="M 161.439857 64.24132 
L 161.20692 71.231473 
L 163.062499 70.37971 
L 160.02064 79.414322 
L 157.586993 70.197247 
L 159.381751 71.170652 
L 159.614688 64.180498 
L 161.439857 64.24132 
" clip-path="url(#p557778d4a4)"/>
    <path d="M 161.390751 44.740519 
L 158.836656 52.169056 
L 160.860497 51.899343 
L 155.30123 59.643481 
L 155.679625 50.118045 
L 157.109699 51.57529 
L 159.663794 44.146753 
L 161.390751 44.740519 
" clip-path="url(#p557778d4a4)"/>
    <path d="M 190.059887 242.24664 
L 188.898485 234.189821 
L 187.221263 235.354124 
L 188.629744 225.9258 
L 192.64376 234.572464 
L 190.705984 233.929268 
L 191.867386 241.986087 
L 190.059887 242.24664 
" clip-path="url(#p557778d4a4)"/>
    <path d="M 190.525971 222.362297 
L 190.512766 221.924632 
L 189.650641 222.388708 
L 190.831579 217.972441 
L 192.276631 222.309474 
L 191.388096 221.89822 
L 191.401301 222.335885 
L 190.525971 222.362297 
" clip-path="url(#p557778d4a4)"/>
    <path d="M 191.876152 202.549415 
L 192.07874 208.2546 
L 193.871368 207.277279 
L 191.45785 216.499645 
L 188.396274 207.471696 
L 190.253708 208.319406 
L 190.051121 202.614221 
L 191.876152 202.549415 
" clip-path="url(#p557778d4a4)"/>
    <path d="M 190.518028 182.017571 
L 190.050632 182.801966 
L 190.49624 183.598941 
L 191.409245 183.61152 
L 191.876641 182.827124 
L 191.431032 182.03015 
L 190.518028 182.017571 
L 190.050632 182.801966 
" clip-path="url(#p557778d4a4)"/>
    <path d="M 190.050999 163.076052 
L 189.969297 160.485129 
L 188.172802 161.455325 
L 190.622922 152.242615 
L 193.648625 161.28265 
L 191.794572 160.427571 
L 191.876274 163.018494 
L 190.050999 163.076052 
" clip-path="url(#p557778d4a4)"/>
    <path d="M 191.417817 142.48788 
L 190.50473 142.490608 
L 190.05055 143.282728 
L 190.509455 144.07212 
L 191.422542 144.069392 
L 191.876723 143.277272 
L 191.417817 142.48788 
L 190.50473 142.490608 
" clip-path="url(#p557778d4a4)"/>
    <path d="M 191.875844 123.55289 
L 191.617682 129.416476 
L 193.482259 128.584594 
L 190.344012 137.586178 
L 188.009016 128.343619 
L 189.793268 129.336151 
L 190.051429 123.472565 
L 191.875844 123.55289 
" clip-path="url(#p557778d4a4)"/>
    <path d="M 191.82345 103.438119 
L 191.127383 102.847166 
L 190.267569 103.154502 
L 190.103823 104.05279 
L 190.79989 104.643743 
L 191.659704 104.336407 
L 191.82345 103.438119 
L 191.127383 102.847166 
" clip-path="url(#p557778d4a4)"/>
    <path d="M 190.414541 83.248641 
L 190.057288 84.088942 
L 190.606383 84.818483 
L 191.512732 84.707722 
L 191.869985 83.867422 
L 191.320889 83.137881 
L 190.414541 83.248641 
L 190.057288 84.088942 
" clip-path="url(#p557778d4a4)"/>
    <path d="M 191.876471 64.232524 
L 191.708973 71.306302 
L 193.556258 70.436697 
L 190.601604 79.500203 
L 188.079247 70.307008 
L 189.883303 71.263072 
L 190.050801 64.189294 
L 191.876471 64.232524 
" clip-path="url(#p557778d4a4)"/>
    <path d="M 191.862153 44.606126 
L 190.59744 51.599582 
L 192.556963 51.026046 
L 188.236514 59.523742 
L 187.165863 50.051106 
L 188.800406 51.274603 
L 190.06512 44.281146 
L 191.862153 44.606126 
" clip-path="url(#p557778d4a4)"/>
    <path d="M 220.539677 242.422271 
L 218.869552 237.725274 
L 217.454814 239.197412 
L 216.976707 229.67646 
L 222.616751 237.361967 
L 220.590198 237.113459 
L 222.260323 241.810456 
L 220.539677 242.422271 
" clip-path="url(#p557778d4a4)"/>
    <path d="M 220.692391 222.926174 
L 218.594208 220.35342 
L 217.756074 222.215195 
L 214.108069 213.407859 
L 222.001726 218.752697 
L 220.009425 219.199254 
L 222.107609 221.772008 
L 220.692391 222.926174 
" clip-path="url(#p557778d4a4)"/>
    <path d="M 220.698899 201.996846 
L 220.542849 202.896504 
L 221.24395 203.481476 
L 222.101101 203.16679 
L 222.257151 202.267133 
L 221.55605 201.682161 
L 220.698899 201.996846 
L 220.542849 202.896504 
" clip-path="url(#p557778d4a4)"/>
    <path d="M 220.906497 182.046308 
L 220.487935 182.857813 
L 220.981438 183.626051 
L 221.893503 183.582783 
L 222.312065 182.771278 
L 221.818562 182.00304 
L 220.906497 182.046308 
L 220.487935 182.857813 
" clip-path="url(#p557778d4a4)"/>
    <path d="M 221.456553 162.135935 
L 220.639035 162.542627 
L 220.582482 163.453965 
L 221.343447 163.958611 
L 222.160965 163.551918 
L 222.217518 162.640581 
L 221.456553 162.135935 
L 220.639035 162.542627 
" clip-path="url(#p557778d4a4)"/>
    <path d="M 221.090482 144.052485 
L 220.317997 143.742967 
L 220.471446 145.597455 
L 213.67515 140.184819 
L 222.328554 140.962545 
L 220.937033 142.197997 
L 221.709518 142.507515 
L 221.090482 144.052485 
" clip-path="url(#p557778d4a4)"/>
    <path d="M 220.546646 123.837569 
L 219.709747 121.639051 
L 218.327882 123.142089 
L 217.639523 113.634025 
L 223.448004 121.193037 
L 221.416455 120.989367 
L 222.253354 123.187885 
L 220.546646 123.837569 
" clip-path="url(#p557778d4a4)"/>
    <path d="M 220.487221 103.721606 
L 220.922957 104.52402 
L 221.835736 104.547869 
L 222.312779 103.769303 
L 221.877043 102.966889 
L 220.964264 102.94304 
L 220.487221 103.721606 
L 220.922957 104.52402 
" clip-path="url(#p557778d4a4)"/>
    <path d="M 222.311754 83.928787 
L 222.643985 90.061227 
L 224.418098 89.050682 
L 222.176789 98.316407 
L 218.947575 89.347054 
L 220.820478 90.160017 
L 220.488246 84.027577 
L 222.311754 83.928787 
" clip-path="url(#p557778d4a4)"/>
    <path d="M 222.312179 64.251713 
L 221.978642 71.707892 
L 223.843804 70.877322 
L 220.699224 79.876696 
L 218.370732 70.632496 
L 220.154285 71.626284 
L 220.487821 64.170105 
L 222.312179 64.251713 
" clip-path="url(#p557778d4a4)"/>
    <path d="M 222.283095 44.675754 
L 220.317622 52.153421 
L 222.31593 51.734561 
L 217.345469 59.869156 
L 217.017361 50.341855 
L 218.551433 51.689185 
L 220.516905 44.211519 
L 222.283095 44.675754 
" clip-path="url(#p557778d4a4)"/>
    <path d="M 250.983547 242.442614 
L 249.229842 237.858447 
L 247.850461 239.363765 
L 247.146401 229.856851 
L 252.967358 237.40626 
L 250.935474 237.205945 
L 252.68918 241.790113 
L 250.983547 242.442614 
" clip-path="url(#p557778d4a4)"/>
    <path d="M 250.926317 222.423595 
L 250.738525 220.129767 
L 248.992937 221.188821 
L 250.978034 211.864846 
L 254.453214 220.741796 
L 252.558618 219.980758 
L 252.74641 222.274587 
L 250.926317 222.423595 
" clip-path="url(#p557778d4a4)"/>
    <path d="M 251.080717 202.069244 
L 251.014638 202.97994 
L 251.770285 203.492515 
L 252.592011 203.094393 
L 252.65809 202.183696 
L 251.902443 201.671121 
L 251.080717 202.069244 
L 251.014638 202.97994 
" clip-path="url(#p557778d4a4)"/>
    <path d="M 252.680338 182.46606 
L 251.956554 181.909399 
L 251.112579 182.257885 
L 250.992389 183.163031 
L 251.716173 183.719691 
L 252.560148 183.371206 
L 252.680338 182.46606 
L 251.956554 181.909399 
" clip-path="url(#p557778d4a4)"/>
    <path d="M 251.796122 163.314797 
L 251.528597 163.274556 
L 251.715639 163.849847 
L 249.161117 162.644858 
L 251.957088 162.244699 
L 251.60908 162.739507 
L 251.876605 162.779748 
L 251.796122 163.314797 
" clip-path="url(#p557778d4a4)"/>
    <path d="M 251.635116 143.185728 
L 251.729388 142.984481 
L 251.232622 142.997184 
L 252.779084 141.267528 
L 252.440105 143.562816 
L 252.131883 143.173025 
L 252.037611 143.374272 
L 251.635116 143.185728 
" clip-path="url(#p557778d4a4)"/>
    <path d="M 251.515317 123.634872 
L 251.393173 123.313825 
L 250.873225 123.879161 
L 250.614919 120.302264 
L 252.799503 123.146294 
L 252.035265 123.069536 
L 252.15741 123.390583 
L 251.515317 123.634872 
" clip-path="url(#p557778d4a4)"/>
    <path d="M 251.449936 104.472792 
L 250.722598 104.086364 
L 250.67708 105.927466 
L 244.562991 99.881175 
L 252.995648 101.563443 
L 251.495454 102.631689 
L 252.222792 103.018117 
L 251.449936 104.472792 
" clip-path="url(#p557778d4a4)"/>
    <path d="M 251.082378 83.463166 
L 251.013354 84.373644 
L 251.767339 84.88866 
L 252.590349 84.493198 
L 252.659373 83.582719 
L 251.905388 83.067704 
L 251.082378 83.463166 
L 251.013354 84.373644 
" clip-path="url(#p557778d4a4)"/>
    <path d="M 252.516829 64.819762 
L 241.923446 76.659141 
L 243.89323 77.19638 
L 235.763308 82.17448 
L 239.810435 73.543265 
L 240.562514 75.441436 
L 251.155898 63.602057 
L 252.516829 64.819762 
" clip-path="url(#p557778d4a4)"/>
    <path d="M 252.717114 44.684497 
L 250.644867 52.262043 
L 252.647228 51.863014 
L 247.596371 59.947935 
L 247.362726 50.41785 
L 248.883366 51.780321 
L 250.955613 44.202776 
L 252.717114 44.684497 
" clip-path="url(#p557778d4a4)"/>
    <path d="M 281.409869 242.415046 
L 279.595423 237.173333 
L 278.16839 238.633556 
L 277.770136 229.108929 
L 283.345537 236.84146 
L 281.321139 236.575967 
L 283.135585 241.817681 
L 281.409869 242.415046 
" clip-path="url(#p557778d4a4)"/>
    <path d="M 281.365997 222.456677 
L 281.22094 221.234149 
L 279.515065 222.356052 
L 281.159396 212.965988 
L 284.955449 221.710535 
L 283.034402 221.018977 
L 283.179458 222.241505 
L 281.365997 222.456677 
" clip-path="url(#p557778d4a4)"/>
    <path d="M 281.359673 202.590029 
L 281.331793 199.489568 
L 279.513895 200.419043 
L 282.170952 191.263872 
L 284.992219 200.36978 
L 283.157901 199.473147 
L 283.185781 202.573608 
L 281.359673 202.590029 
" clip-path="url(#p557778d4a4)"/>
    <path d="M 283.128098 182.495052 
L 282.423723 181.914026 
L 281.568353 182.233519 
L 281.417357 183.134039 
L 282.121731 183.715065 
L 282.977102 183.395572 
L 283.128098 182.495052 
L 282.423723 181.914026 
" clip-path="url(#p557778d4a4)"/>
    <path d="M 283.153159 163.289294 
L 282.264784 166.521056 
L 284.267669 166.124666 
L 279.206163 174.202924 
L 278.985076 164.672539 
L 280.50392 166.037014 
L 281.392295 162.805252 
L 283.153159 163.289294 
" clip-path="url(#p557778d4a4)"/>
    <path d="M 282.715786 144.078395 
L 283.185687 143.295497 
L 282.742628 142.497103 
L 281.829668 142.481605 
L 281.359768 143.264503 
L 281.802827 144.062897 
L 282.715786 144.078395 
L 283.185687 143.295497 
" clip-path="url(#p557778d4a4)"/>
    <path d="M 283.181731 123.59903 
L 282.631795 129.39136 
L 284.536104 128.654962 
L 280.946069 137.486086 
L 279.082085 128.137146 
L 280.813789 129.218755 
L 281.363724 123.426425 
L 283.181731 123.59903 
" clip-path="url(#p557778d4a4)"/>
    <path d="M 281.467417 103.315094 
L 281.497369 104.227693 
L 282.302679 104.658054 
L 283.078037 104.175815 
L 283.048086 103.263216 
L 282.242776 102.832855 
L 281.467417 103.315094 
L 281.497369 104.227693 
" clip-path="url(#p557778d4a4)"/>
    <path d="M 283.185721 83.991515 
L 283.082627 91.051076 
L 284.921947 90.164748 
L 282.049638 99.254685 
L 279.443986 90.084751 
L 281.25664 91.024411 
L 281.359734 83.964849 
L 283.185721 83.991515 
" clip-path="url(#p557778d4a4)"/>
    <path d="M 283.173278 64.361716 
L 282.383765 69.07632 
L 284.335674 68.477383 
L 280.125947 77.030471 
L 278.932368 67.572539 
L 280.582663 68.774705 
L 281.372176 64.060102 
L 283.173278 64.361716 
" clip-path="url(#p557778d4a4)"/>
    <path d="M 282.595297 44.929077 
L 282.109857 45.251647 
L 283.240437 45.899958 
L 277.418323 47.669336 
L 281.305017 42.987315 
L 281.464717 44.280766 
L 281.950157 43.958196 
L 282.595297 44.929077 
" clip-path="url(#p557778d4a4)"/>
    <path d="M 311.852324 242.432093 
L 310.121019 237.734 
L 308.723214 239.222226 
L 308.136224 229.707366 
L 313.863817 237.327851 
L 311.834554 237.102542 
L 313.565858 241.800634 
L 311.852324 242.432093 
" clip-path="url(#p557778d4a4)"/>
    <path d="M 311.803018 222.462082 
L 311.576593 220.64639 
L 309.877439 221.778446 
L 311.465741 212.378744 
L 315.313875 221.100497 
L 313.388738 220.420407 
L 313.615164 222.236099 
L 311.803018 222.462082 
" clip-path="url(#p557778d4a4)"/>
    <path d="M 313.621076 202.626749 
L 313.203994 201.814481 
L 312.292009 201.769551 
L 311.797106 202.536888 
L 312.214188 203.349155 
L 313.126172 203.394085 
L 313.621076 202.626749 
L 313.203994 201.814481 
" clip-path="url(#p557778d4a4)"/>
    <path d="M 312.411034 183.45767 
L 311.76791 183.159613 
L 311.81492 184.743918 
L 306.277848 179.833977 
L 313.603261 180.885172 
L 312.364023 181.873364 
L 313.007148 182.171421 
L 312.411034 183.45767 
" clip-path="url(#p557778d4a4)"/>
    <path d="M 312.564253 162.145742 
L 311.855924 162.721941 
L 312.000762 163.623472 
L 312.853929 163.948803 
L 313.562258 163.372604 
L 313.41742 162.471074 
L 312.564253 162.145742 
L 311.855924 162.721941 
" clip-path="url(#p557778d4a4)"/>
    <path d="M 312.419006 143.914374 
L 311.784632 143.624289 
L 311.838836 145.183122 
L 306.365352 140.37915 
L 313.579346 141.376878 
L 312.364802 142.355541 
L 312.999176 142.645626 
L 312.419006 143.914374 
" clip-path="url(#p557778d4a4)"/>
    <path d="M 312.949158 122.63176 
L 312.066185 122.86434 
L 311.826118 123.745307 
L 312.469024 124.393694 
L 313.351997 124.161115 
L 313.592064 123.280148 
L 312.949158 122.63176 
L 312.066185 122.86434 
" clip-path="url(#p557778d4a4)"/>
    <path d="M 312.687449 102.83262 
L 311.907732 103.30778 
L 311.929374 104.220614 
L 312.730733 104.658289 
L 313.51045 104.183129 
L 313.488808 103.270295 
L 312.687449 102.83262 
L 311.907732 103.30778 
" clip-path="url(#p557778d4a4)"/>
    <path d="M 312.829412 83.073053 
L 311.985387 83.421416 
L 311.865066 84.326545 
L 312.588769 84.88331 
L 313.432794 84.534948 
L 313.553116 83.629819 
L 312.829412 83.073053 
L 311.985387 83.421416 
" clip-path="url(#p557778d4a4)"/>
    <path d="M 313.519009 63.789285 
L 318.438302 73.238993 
L 319.636515 71.585826 
L 321.423002 80.949883 
L 314.777004 74.115571 
L 316.818465 74.082241 
L 311.899172 64.632533 
L 313.519009 63.789285 
" clip-path="url(#p557778d4a4)"/>
    <path d="M 313.590389 44.682487 
L 311.484002 52.45453 
L 313.485447 52.050933 
L 308.453053 60.14736 
L 308.197661 50.617832 
L 309.721406 51.97683 
L 311.827793 44.204786 
L 313.590389 44.682487 
" clip-path="url(#p557778d4a4)"/>
    <path d="M 342.276405 242.39652 
L 340.54521 237.026322 
L 339.087267 238.455684 
L 338.892854 228.924718 
L 344.301566 236.774747 
L 342.28331 236.46601 
L 344.014504 241.836207 
L 342.276405 242.39652 
" clip-path="url(#p557778d4a4)"/>
    <path d="M 342.424402 222.909286 
L 333.153425 210.97618 
L 332.271514 212.817622 
L 328.832725 203.926512 
L 336.59783 209.456454 
L 334.59553 209.855791 
L 343.866507 221.788896 
L 342.424402 222.909286 
" clip-path="url(#p557778d4a4)"/>
    <path d="M 343.268064 203.48664 
L 336.675411 204.379987 
L 337.825451 206.06702 
L 328.409408 204.578647 
L 337.089796 200.638091 
L 336.430193 202.570343 
L 343.022845 201.676997 
L 343.268064 203.48664 
" clip-path="url(#p557778d4a4)"/>
    <path d="M 343.852653 183.392131 
L 335.304901 193.858028 
L 337.296884 194.306002 
L 329.399429 199.645227 
L 333.053694 190.840486 
L 333.890504 192.702856 
L 342.438256 182.236959 
L 343.852653 183.392131 
" clip-path="url(#p557778d4a4)"/>
    <path d="M 343.165221 163.96015 
L 336.901832 164.095768 
L 337.854241 165.901756 
L 328.666173 163.360787 
L 337.735644 160.424495 
L 336.862299 162.270015 
L 343.125688 162.134396 
L 343.165221 163.96015 
" clip-path="url(#p557778d4a4)"/>
    <path d="M 343.170071 144.192759 
L 337.161826 144.354799 
L 338.123818 146.155701 
L 328.922378 143.663591 
L 337.976118 140.679146 
L 337.112592 142.529281 
L 343.120838 142.367241 
L 343.170071 144.192759 
" clip-path="url(#p557778d4a4)"/>
    <path d="M 343.15436 124.425775 
L 337.259932 124.483265 
L 338.19079 126.300455 
L 329.033599 123.650366 
L 338.137358 120.82217 
L 337.242121 122.65717 
L 343.136549 122.59968 
L 343.15436 124.425775 
" clip-path="url(#p557778d4a4)"/>
    <path d="M 343.170655 104.658198 
L 337.128824 104.82501 
L 338.091968 106.625295 
L 328.888936 104.13907 
L 337.940766 101.148837 
L 337.078424 102.999523 
L 343.120254 102.832711 
L 343.170655 104.658198 
" clip-path="url(#p557778d4a4)"/>
    <path d="M 343.172271 84.890879 
L 337.13859 85.068155 
L 338.104919 86.866733 
L 328.897501 84.396803 
L 337.944023 81.390551 
L 337.084958 83.242761 
L 343.118638 83.065485 
L 343.172271 84.890879 
" clip-path="url(#p557778d4a4)"/>
    <path d="M 343.865964 64.771802 
L 334.616155 76.653885 
L 336.618067 77.055161 
L 328.847609 82.577578 
L 332.29501 73.689803 
L 333.175136 75.532099 
L 342.424945 63.650016 
L 343.865964 64.771802 
" clip-path="url(#p557778d4a4)"/>
    <path d="M 344.026237 44.684381 
L 342.367101 50.75446 
L 344.36941 50.355167 
L 339.31962 58.440755 
L 339.084717 48.910701 
L 340.605537 50.272972 
L 342.264672 44.202892 
L 344.026237 44.684381 
" clip-path="url(#p557778d4a4)"/>
    <path d="M 373.972473 242.523508 
L 373.565329 242.914163 
L 374.753783 243.337798 
L 369.510371 246.022915 
L 372.409853 240.89493 
L 372.784018 242.099874 
L 373.191163 241.709219 
L 373.972473 242.523508 
" clip-path="url(#p557778d4a4)"/>
    <path d="M 373.69916 223.254611 
L 367.154527 224.102694 
L 368.29473 225.796392 
L 358.887508 224.253247 
L 367.590681 220.363274 
L 366.919844 222.291655 
L 373.464477 221.443571 
L 373.69916 223.254611 
" clip-path="url(#p557778d4a4)"/>
    <path d="M 373.678304 203.489797 
L 360.277166 204.913862 
L 361.378117 206.633334 
L 352.008871 204.874256 
L 360.799202 201.185461 
L 360.084195 203.097904 
L 373.485332 201.673839 
L 373.678304 203.489797 
" clip-path="url(#p557778d4a4)"/>
    <path d="M 373.69088 183.7211 
L 366.942031 184.533012 
L 368.066709 186.237059 
L 358.673981 184.608016 
L 367.412337 180.797733 
L 366.723907 182.719904 
L 373.472756 181.907991 
L 373.69088 183.7211 
" clip-path="url(#p557778d4a4)"/>
    <path d="M 373.670515 163.956045 
L 366.810944 164.625544 
L 367.897111 166.354393 
L 358.543293 164.515043 
L 367.36493 160.901756 
L 366.633551 162.807999 
L 373.493121 162.1385 
L 373.670515 163.956045 
" clip-path="url(#p557778d4a4)"/>
    <path d="M 373.662341 144.189533 
L 367.050911 144.774859 
L 368.121491 146.513403 
L 358.784587 144.590034 
L 367.638352 141.056202 
L 366.889865 142.955792 
L 373.501295 142.370467 
L 373.662341 144.189533 
" clip-path="url(#p557778d4a4)"/>
    <path d="M 373.662198 124.422273 
L 367.191774 124.994089 
L 368.26208 126.732801 
L 358.92548 124.807962 
L 367.779801 121.275524 
L 367.031014 123.174997 
L 373.501438 122.603181 
L 373.662198 124.422273 
" clip-path="url(#p557778d4a4)"/>
    <path d="M 373.673089 104.653972 
L 367.121854 105.312119 
L 368.212914 107.037883 
L 358.853923 105.22504 
L 367.665288 101.586777 
L 366.939312 103.495083 
L 373.490547 102.836937 
L 373.673089 104.653972 
" clip-path="url(#p557778d4a4)"/>
    <path d="M 373.699038 84.883717 
L 367.037289 85.746071 
L 368.177265 87.439922 
L 358.77025 85.895518 
L 367.473944 82.006709 
L 366.802849 83.935 
L 373.464598 83.072646 
L 373.699038 84.883717 
" clip-path="url(#p557778d4a4)"/>
    <path d="M 373.692351 65.117285 
L 366.87309 65.948897 
L 368.000532 67.651116 
L 358.605173 66.037317 
L 367.337334 62.21286 
L 366.652024 64.136145 
L 373.471285 63.304533 
L 373.692351 65.117285 
" clip-path="url(#p557778d4a4)"/>
    <path d="M 373.947039 44.891761 
L 373.498914 45.256982 
L 374.677482 45.788011 
L 369.10057 48.095848 
L 372.486155 43.099262 
L 372.768472 44.360733 
L 373.216597 43.995512 
L 373.947039 44.891761 
" clip-path="url(#p557778d4a4)"/>
   </g>
   <g id="matplotlib.axis_1">
    <g id="xtick_1">
     <g id="line2d_1">
      <defs>
       <path id="m3d56e11a07" d="M 0 0 
L 0 3.5 
" style="stroke: #000000; stroke-width: 0.8"/>
      </defs>
      <g>
       <use xlink:href="#m3d56e11a07" x="69.218182" y="252" style="stroke: #000000; stroke-width: 0.8"/>
      </g>
     </g>
     <g id="text_1">
      <!-- 0 -->
      <g transform="translate(66.036932 266.598437)scale(0.1 -0.1)">
       <defs>
        <path id="DejaVuSans-30" d="M 2034 4250 
Q 1547 4250 1301 3770 
Q 1056 3291 1056 2328 
Q 1056 1369 1301 889 
Q 1547 409 2034 409 
Q 2525 409 2770 889 
Q 3016 1369 3016 2328 
Q 3016 3291 2770 3770 
Q 2525 4250 2034 4250 
z
M 2034 4750 
Q 2819 4750 3233 4129 
Q 3647 3509 3647 2328 
Q 3647 1150 3233 529 
Q 2819 -91 2034 -91 
Q 1250 -91 836 529 
Q 422 1150 422 2328 
Q 422 3509 836 4129 
Q 1250 4750 2034 4750 
z
" transform="scale(0.015625)"/>
       </defs>
       <use xlink:href="#DejaVuSans-30"/>
      </g>
     </g>
    </g>
    <g id="xtick_2">
     <g id="line2d_2">
      <g>
       <use xlink:href="#m3d56e11a07" x="130.090909" y="252" style="stroke: #000000; stroke-width: 0.8"/>
      </g>
     </g>
     <g id="text_2">
      <!-- 2 -->
      <g transform="translate(126.909659 266.598437)scale(0.1 -0.1)">
       <defs>
        <path id="DejaVuSans-32" d="M 1228 531 
L 3431 531 
L 3431 0 
L 469 0 
L 469 531 
Q 828 903 1448 1529 
Q 2069 2156 2228 2338 
Q 2531 2678 2651 2914 
Q 2772 3150 2772 3378 
Q 2772 3750 2511 3984 
Q 2250 4219 1831 4219 
Q 1534 4219 1204 4116 
Q 875 4013 500 3803 
L 500 4441 
Q 881 4594 1212 4672 
Q 1544 4750 1819 4750 
Q 2544 4750 2975 4387 
Q 3406 4025 3406 3419 
Q 3406 3131 3298 2873 
Q 3191 2616 2906 2266 
Q 2828 2175 2409 1742 
Q 1991 1309 1228 531 
z
" transform="scale(0.015625)"/>
       </defs>
       <use xlink:href="#DejaVuSans-32"/>
      </g>
     </g>
    </g>
    <g id="xtick_3">
     <g id="line2d_3">
      <g>
       <use xlink:href="#m3d56e11a07" x="190.963636" y="252" style="stroke: #000000; stroke-width: 0.8"/>
      </g>
     </g>
     <g id="text_3">
      <!-- 4 -->
      <g transform="translate(187.782386 266.598437)scale(0.1 -0.1)">
       <defs>
        <path id="DejaVuSans-34" d="M 2419 4116 
L 825 1625 
L 2419 1625 
L 2419 4116 
z
M 2253 4666 
L 3047 4666 
L 3047 1625 
L 3713 1625 
L 3713 1100 
L 3047 1100 
L 3047 0 
L 2419 0 
L 2419 1100 
L 313 1100 
L 313 1709 
L 2253 4666 
z
" transform="scale(0.015625)"/>
       </defs>
       <use xlink:href="#DejaVuSans-34"/>
      </g>
     </g>
    </g>
    <g id="xtick_4">
     <g id="line2d_4">
      <g>
       <use xlink:href="#m3d56e11a07" x="251.836364" y="252" style="stroke: #000000; stroke-width: 0.8"/>
      </g>
     </g>
     <g id="text_4">
      <!-- 6 -->
      <g transform="translate(248.655114 266.598437)scale(0.1 -0.1)">
       <defs>
        <path id="DejaVuSans-36" d="M 2113 2584 
Q 1688 2584 1439 2293 
Q 1191 2003 1191 1497 
Q 1191 994 1439 701 
Q 1688 409 2113 409 
Q 2538 409 2786 701 
Q 3034 994 3034 1497 
Q 3034 2003 2786 2293 
Q 2538 2584 2113 2584 
z
M 3366 4563 
L 3366 3988 
Q 3128 4100 2886 4159 
Q 2644 4219 2406 4219 
Q 1781 4219 1451 3797 
Q 1122 3375 1075 2522 
Q 1259 2794 1537 2939 
Q 1816 3084 2150 3084 
Q 2853 3084 3261 2657 
Q 3669 2231 3669 1497 
Q 3669 778 3244 343 
Q 2819 -91 2113 -91 
Q 1303 -91 875 529 
Q 447 1150 447 2328 
Q 447 3434 972 4092 
Q 1497 4750 2381 4750 
Q 2619 4750 2861 4703 
Q 3103 4656 3366 4563 
z
" transform="scale(0.015625)"/>
       </defs>
       <use xlink:href="#DejaVuSans-36"/>
      </g>
     </g>
    </g>
    <g id="xtick_5">
     <g id="line2d_5">
      <g>
       <use xlink:href="#m3d56e11a07" x="312.709091" y="252" style="stroke: #000000; stroke-width: 0.8"/>
      </g>
     </g>
     <g id="text_5">
      <!-- 8 -->
      <g transform="translate(309.527841 266.598437)scale(0.1 -0.1)">
       <defs>
        <path id="DejaVuSans-38" d="M 2034 2216 
Q 1584 2216 1326 1975 
Q 1069 1734 1069 1313 
Q 1069 891 1326 650 
Q 1584 409 2034 409 
Q 2484 409 2743 651 
Q 3003 894 3003 1313 
Q 3003 1734 2745 1975 
Q 2488 2216 2034 2216 
z
M 1403 2484 
Q 997 2584 770 2862 
Q 544 3141 544 3541 
Q 544 4100 942 4425 
Q 1341 4750 2034 4750 
Q 2731 4750 3128 4425 
Q 3525 4100 3525 3541 
Q 3525 3141 3298 2862 
Q 3072 2584 2669 2484 
Q 3125 2378 3379 2068 
Q 3634 1759 3634 1313 
Q 3634 634 3220 271 
Q 2806 -91 2034 -91 
Q 1263 -91 848 271 
Q 434 634 434 1313 
Q 434 1759 690 2068 
Q 947 2378 1403 2484 
z
M 1172 3481 
Q 1172 3119 1398 2916 
Q 1625 2713 2034 2713 
Q 2441 2713 2670 2916 
Q 2900 3119 2900 3481 
Q 2900 3844 2670 4047 
Q 2441 4250 2034 4250 
Q 1625 4250 1398 4047 
Q 1172 3844 1172 3481 
z
" transform="scale(0.015625)"/>
       </defs>
       <use xlink:href="#DejaVuSans-38"/>
      </g>
     </g>
    </g>
    <g id="xtick_6">
     <g id="line2d_6">
      <g>
       <use xlink:href="#m3d56e11a07" x="373.581818" y="252" style="stroke: #000000; stroke-width: 0.8"/>
      </g>
     </g>
     <g id="text_6">
      <!-- 10 -->
      <g transform="translate(367.219318 266.598437)scale(0.1 -0.1)">
       <defs>
        <path id="DejaVuSans-31" d="M 794 531 
L 1825 531 
L 1825 4091 
L 703 3866 
L 703 4441 
L 1819 4666 
L 2450 4666 
L 2450 531 
L 3481 531 
L 3481 0 
L 794 0 
L 794 531 
z
" transform="scale(0.015625)"/>
       </defs>
       <use xlink:href="#DejaVuSans-31"/>
       <use xlink:href="#DejaVuSans-30" x="63.623047"/>
      </g>
     </g>
    </g>
   </g>
   <g id="matplotlib.axis_2">
    <g id="ytick_1">
     <g id="line2d_7">
      <defs>
       <path id="m2666d2c771" d="M 0 0 
L -3.5 0 
" style="stroke: #000000; stroke-width: 0.8"/>
      </defs>
      <g>
       <use xlink:href="#m2666d2c771" x="54" y="242.116364" style="stroke: #000000; stroke-width: 0.8"/>
      </g>
     </g>
     <g id="text_7">
      <!-- 0 -->
      <g transform="translate(40.6375 245.915582)scale(0.1 -0.1)">
       <use xlink:href="#DejaVuSans-30"/>
      </g>
     </g>
    </g>
    <g id="ytick_2">
     <g id="line2d_8">
      <g>
       <use xlink:href="#m2666d2c771" x="54" y="202.581818" style="stroke: #000000; stroke-width: 0.8"/>
      </g>
     </g>
     <g id="text_8">
      <!-- 2 -->
      <g transform="translate(40.6375 206.381037)scale(0.1 -0.1)">
       <use xlink:href="#DejaVuSans-32"/>
      </g>
     </g>
    </g>
    <g id="ytick_3">
     <g id="line2d_9">
      <g>
       <use xlink:href="#m2666d2c771" x="54" y="163.047273" style="stroke: #000000; stroke-width: 0.8"/>
      </g>
     </g>
     <g id="text_9">
      <!-- 4 -->
      <g transform="translate(40.6375 166.846491)scale(0.1 -0.1)">
       <use xlink:href="#DejaVuSans-34"/>
      </g>
     </g>
    </g>
    <g id="ytick_4">
     <g id="line2d_10">
      <g>
       <use xlink:href="#m2666d2c771" x="54" y="123.512727" style="stroke: #000000; stroke-width: 0.8"/>
      </g>
     </g>
     <g id="text_10">
      <!-- 6 -->
      <g transform="translate(40.6375 127.311946)scale(0.1 -0.1)">
       <use xlink:href="#DejaVuSans-36"/>
      </g>
     </g>
    </g>
    <g id="ytick_5">
     <g id="line2d_11">
      <g>
       <use xlink:href="#m2666d2c771" x="54" y="83.978182" style="stroke: #000000; stroke-width: 0.8"/>
      </g>
     </g>
     <g id="text_11">
      <!-- 8 -->
      <g transform="translate(40.6375 87.777401)scale(0.1 -0.1)">
       <use xlink:href="#DejaVuSans-38"/>
      </g>
     </g>
    </g>
    <g id="ytick_6">
     <g id="line2d_12">
      <g>
       <use xlink:href="#m2666d2c771" x="54" y="44.443636" style="stroke: #000000; stroke-width: 0.8"/>
      </g>
     </g>
     <g id="text_12">
      <!-- 10 -->
      <g transform="translate(34.275 48.242855)scale(0.1 -0.1)">
       <use xlink:href="#DejaVuSans-31"/>
       <use xlink:href="#DejaVuSans-30" x="63.623047"/>
      </g>
     </g>
    </g>
   </g>
   <g id="patch_3">
    <path d="M 54 252 
L 54 34.56 
" style="fill: none; stroke: #000000; stroke-width: 0.8; stroke-linejoin: miter; stroke-linecap: square"/>
   </g>
   <g id="patch_4">
    <path d="M 388.8 252 
L 388.8 34.56 
" style="fill: none; stroke: #000000; stroke-width: 0.8; stroke-linejoin: miter; stroke-linecap: square"/>
   </g>
   <g id="patch_5">
    <path d="M 54 252 
L 388.8 252 
" style="fill: none; stroke: #000000; stroke-width: 0.8; stroke-linejoin: miter; stroke-linecap: square"/>
   </g>
   <g id="patch_6">
    <path d="M 54 34.56 
L 388.8 34.56 
" style="fill: none; stroke: #000000; stroke-width: 0.8; stroke-linejoin: miter; stroke-linecap: square"/>
   </g>
  </g>
 </g>
 <defs>
  <clipPath id="p557778d4a4">
   <rect x="54" y="34.56" width="334.8" height="217.44"/>
  </clipPath>
 </defs>
</svg>
